<?xml version="1.0" standalone="no"?>
<!DOCTYPE svg PUBLIC "-//W3C//DTD SVG 20010904//EN"
 "http://www.w3.org/TR/2001/REC-SVG-20010904/DTD/svg10.dtd">
<svg version="1.0" xmlns="http://www.w3.org/2000/svg"
 width="300.000000pt" height="291.000000pt" viewBox="0 0 300.000000 291.000000"
 preserveAspectRatio="xMidYMid meet">

<g transform="translate(0.000000,291.000000) scale(0.100000,-0.100000)"
fill="#000000" stroke="none">
<path d="M1419 2897 c-100 -28 -175 -92 -221 -187 -17 -35 -22 -64 -22 -130
-1 -73 3 -93 27 -141 122 -250 472 -250 594 0 24 48 28 68 28 141 -1 72 -5 94
-28 142 -66 135 -237 215 -378 175z"/>
<path d="M285 2170 c-138 -17 -205 -58 -205 -127 0 -21 7 -48 15 -59 22 -33
100 -61 230 -83 131 -23 165 -40 130 -67 -27 -21 -136 -15 -163 9 -15 14 -39
17 -125 17 -74 0 -107 -4 -107 -12 0 -25 78 -85 136 -104 80 -25 272 -26 358
0 80 24 126 69 126 123 0 71 -52 101 -236 134 -127 22 -154 32 -154 53 0 26
89 35 135 14 14 -6 25 -15 25 -20 0 -4 47 -8 105 -8 121 0 130 9 69 66 -57 54
-200 81 -339 64z"/>
<path d="M790 1945 l0 -215 288 2 287 3 3 48 3 47 -174 0 c-95 0 -176 2 -179
5 -2 3 -3 18 0 35 l4 30 139 0 139 0 0 50 0 49 -142 3 -142 3 0 30 0 30 167 3
167 2 0 45 0 45 -280 0 -280 0 0 -215z"/>
<path d="M1480 1945 l0 -215 106 0 106 0 -3 115 c-2 63 -3 115 -1 115 2 0 58
-52 125 -115 l121 -115 103 0 103 0 0 215 0 215 -105 0 -105 0 0 -117 0 -116
-117 116 -118 117 -107 0 -108 0 0 -215z"/>
<path d="M2359 1978 c-56 -101 -111 -198 -122 -215 l-19 -33 110 0 110 0 12
30 12 30 114 0 113 0 16 -30 16 -30 110 0 111 0 -25 43 c-13 23 -68 120 -122
215 l-97 172 -118 0 -118 0 -103 -182z m256 -15 c17 -36 32 -70 33 -75 2 -4
-29 -8 -68 -8 -39 0 -70 4 -68 8 33 80 62 142 67 142 3 0 20 -30 36 -67z"/>
<path d="M10 1586 c0 -29 -3 -74 -6 -100 l-7 -46 527 0 c289 0 526 -2 526 -4
0 -3 -144 -244 -320 -538 l-321 -533 43 -38 c24 -21 63 -55 88 -77 l46 -38
394 700 c217 385 396 707 398 714 3 12 -103 14 -682 14 l-686 0 0 -54z"/>
<path d="M1622 1626 c2 -7 181 -329 398 -714 l395 -700 45 38 c25 22 64 56 88
77 l43 38 -321 533 c-176 294 -320 535 -320 538 0 2 237 4 526 4 l527 0 -7 46
c-3 26 -6 71 -6 100 l0 54 -686 0 c-575 0 -685 -2 -682 -14z"/>
<path d="M1117 743 l-376 -648 82 -42 c45 -23 87 -42 92 -42 6 -1 141 222 300
494 160 272 292 494 295 495 3 0 128 -221 279 -490 151 -270 276 -490 278
-490 15 0 193 85 193 93 0 7 -721 1210 -755 1260 -11 16 -61 -65 -388 -630z"/>
</g>
</svg>
